<svg xmlns="http://www.w3.org/2000/svg" width="800" height="400" viewBox="0 0 800 400">
  <rect width="800" height="400" fill="#0a0a1a"/>
  <!-- Stars -->
  <circle cx="50" cy="30" r="2.5" fill="#fff" opacity="0.8"/>
  <circle cx="120" cy="80" r="1.5" fill="#d0e8ff" opacity="0.6"/>
  <circle cx="200" cy="20" r="2" fill="#fff" opacity="0.7"/>
  <circle cx="280" cy="60" r="3" fill="#00d4ff" opacity="0.5"/>
  <circle cx="350" cy="35" r="1.5" fill="#fff" opacity="0.9"/>
  <circle cx="420" cy="15" r="2" fill="#fff" opacity="0.6"/>
  <circle cx="500" cy="50" r="2.5" fill="#c0b0ff" opacity="0.7"/>
  <circle cx="580" cy="25" r="2" fill="#fff" opacity="0.8"/>
  <circle cx="650" cy="70" r="1.5" fill="#00d4ff" opacity="0.6"/>
  <circle cx="720" cy="40" r="2.5" fill="#fff" opacity="0.7"/>
  <circle cx="780" cy="90" r="2" fill="#d0e8ff" opacity="0.5"/>
  <circle cx="30" cy="150" r="2" fill="#fff" opacity="0.7"/>
  <circle cx="100" cy="200" r="1.5" fill="#fff" opacity="0.6"/>
  <circle cx="170" cy="170" r="2.5" fill="#00d4ff" opacity="0.5"/>
  <circle cx="250" cy="220" r="2" fill="#fff" opacity="0.8"/>
  <circle cx="330" cy="180" r="1.5" fill="#c0b0ff" opacity="0.6"/>
  <circle cx="400" cy="140" r="3" fill="#fff" opacity="0.7"/>
  <circle cx="470" cy="190" r="2" fill="#fff" opacity="0.9"/>
  <circle cx="540" cy="160" r="2.5" fill="#d0e8ff" opacity="0.6"/>
  <circle cx="620" cy="210" r="1.5" fill="#fff" opacity="0.7"/>
  <circle cx="690" cy="150" r="2.5" fill="#00d4ff" opacity="0.5"/>
  <circle cx="760" cy="200" r="2" fill="#fff" opacity="0.8"/>
  <circle cx="60" cy="280" r="2" fill="#fff" opacity="0.6"/>
  <circle cx="140" cy="320" r="2.5" fill="#d0e8ff" opacity="0.7"/>
  <circle cx="220" cy="350" r="1.5" fill="#fff" opacity="0.5"/>
  <circle cx="300" cy="290" r="2.5" fill="#fff" opacity="0.8"/>
  <circle cx="380" cy="330" r="2" fill="#00d4ff" opacity="0.6"/>
  <circle cx="450" cy="300" r="1.5" fill="#fff" opacity="0.7"/>
  <circle cx="530" cy="350" r="2.5" fill="#c0b0ff" opacity="0.5"/>
  <circle cx="600" cy="280" r="3" fill="#fff" opacity="0.8"/>
  <circle cx="670" cy="340" r="1.5" fill="#fff" opacity="0.6"/>
  <circle cx="740" cy="310" r="2" fill="#00d4ff" opacity="0.7"/>
  <circle cx="90" cy="380" r="1.5" fill="#fff" opacity="0.5"/>
  <circle cx="180" cy="260" r="2.5" fill="#fff" opacity="0.7"/>
  <circle cx="310" cy="120" r="2" fill="#fff" opacity="0.6"/>
  <circle cx="480" cy="100" r="2.5" fill="#d0e8ff" opacity="0.8"/>
  <circle cx="560" cy="120" r="1.5" fill="#fff" opacity="0.5"/>
  <circle cx="700" cy="260" r="2" fill="#fff" opacity="0.7"/>
  <circle cx="770" cy="370" r="2.5" fill="#c0b0ff" opacity="0.6"/>
  <circle cx="440" cy="370" r="2.5" fill="#fff" opacity="0.7"/>
  <circle cx="150" cy="390" r="2" fill="#00d4ff" opacity="0.5"/>
  <circle cx="520" cy="240" r="2.5" fill="#fff" opacity="0.8"/>
  <circle cx="360" cy="260" r="2" fill="#fff" opacity="0.6"/>
  <circle cx="75" cy="110" r="1.5" fill="#fff" opacity="0.7"/>
  <circle cx="430" cy="80" r="2" fill="#d0e8ff" opacity="0.6"/>
  <circle cx="260" cy="310" r="2.5" fill="#fff" opacity="0.5"/>
  <circle cx="640" cy="140" r="2" fill="#00d4ff" opacity="0.7"/>
  <circle cx="510" cy="310" r="1.5" fill="#fff" opacity="0.6"/>
  <defs>
    <radialGradient id="g1"><stop offset="0%" stop-color="#00d4ff"/><stop offset="100%" stop-color="transparent"/></radialGradient>
    <radialGradient id="g2"><stop offset="0%" stop-color="#7928ca"/><stop offset="100%" stop-color="transparent"/></radialGradient>
    <radialGradient id="g3"><stop offset="0%" stop-color="#ff0080"/><stop offset="100%" stop-color="transparent"/></radialGradient>
  </defs>
</svg>
